<?xml version="1.0" encoding="UTF-8"?>
<!DOCTYPE svg PUBLIC "-//W3C//DTD SVG 1.1//EN" "http://www.w3.org/Graphics/SVG/1.1/DTD/svg11.dtd">
<!-- Creator: CorelDRAW 2020 (64-Bit) -->
<svg xmlns="http://www.w3.org/2000/svg" xml:space="preserve" width="8.26772in" height="8.26772in" version="1.1" style="shape-rendering:geometricPrecision; text-rendering:geometricPrecision; image-rendering:optimizeQuality; fill-rule:evenodd; clip-rule:evenodd"
viewBox="0 0 8267.72 8267.72"
 xmlns:xlink="http://www.w3.org/1999/xlink"
 xmlns:xodm="http://www.corel.com/coreldraw/odm/2003">
 <defs>
  <style type="text/css">
   <![CDATA[
    .fil5 {fill:none}
    .fil6 {fill:#01783E;fill-rule:nonzero}
    .fil0 {fill:url(#id0)}
    .fil1 {fill:url(#id1)}
    .fil4 {fill:url(#id2);fill-opacity:0.501961}
    .fil3 {fill:url(#id3);fill-opacity:0.501961}
    .fil2 {fill:url(#id4);fill-opacity:0.760784}
   ]]>
  </style>
  <radialGradient id="id0" gradientUnits="userSpaceOnUse" gradientTransform="matrix(0.701918 -0.0307651 0.0460815 1.05128 1068 -64)" cx="4162.12" cy="3746.59" r="2526.25" fx="4162.12" fy="3746.59">
   <stop offset="0" style="stop-opacity:1; stop-color:#58E009"/>
   <stop offset="1" style="stop-opacity:1; stop-color:#01783E"/>
  </radialGradient>
  <radialGradient id="id1" gradientUnits="userSpaceOnUse" gradientTransform="matrix(0.078105 0.929406 -1.03031 -0.0305606 7551 -193)" cx="4183.65" cy="3585.82" r="1283.76" fx="4183.65" fy="3585.82">
   <stop offset="0" style="stop-opacity:1; stop-color:#009EFA"/>
   <stop offset="0.690196" style="stop-opacity:1; stop-color:#146DC5"/>
   <stop offset="1" style="stop-opacity:1; stop-color:#283D90"/>
  </radialGradient>
  <linearGradient id="id2" gradientUnits="userSpaceOnUse" x1="4146.83" y1="2527.07" x2="4073.38" y2="4523.23">
   <stop offset="0" style="stop-opacity:1; stop-color:#283D90"/>
   <stop offset="0.301961" style="stop-opacity:1; stop-color:#156BC3"/>
   <stop offset="1" style="stop-opacity:1; stop-color:#029AF6"/>
  </linearGradient>
  <linearGradient id="id3" gradientUnits="userSpaceOnUse" x1="3083.8" y1="3335.73" x2="4250.46" y2="4471.15">
   <stop offset="0" style="stop-opacity:1; stop-color:#037A3D"/>
   <stop offset="0.670588" style="stop-opacity:1; stop-color:#2BAA25"/>
   <stop offset="1" style="stop-opacity:1; stop-color:#53DA0C"/>
  </linearGradient>
  <linearGradient id="id4" gradientUnits="userSpaceOnUse" x1="4051.07" y1="2296.44" x2="3618.99" y2="5758.33">
   <stop offset="0" style="stop-opacity:1; stop-color:#01783E"/>
   <stop offset="0.568627" style="stop-opacity:1; stop-color:#26A21F"/>
   <stop offset="1" style="stop-opacity:1; stop-color:#4BCC00"/>
  </linearGradient>
 </defs>
 <g id="Layer_x0020_1">
  <metadata id="CorelCorpID_0Corel-Layer"/>
  <path class="fil0" d="M4207.03 1065.67c0,0 70.29,627.62 492.16,1263.03 421.87,635.41 979.15,1437.5 1093.74,1718.75 114.58,281.25 255.19,880.22 67.69,1276.05 -187.5,395.83 -515.63,687.5 -1020.83,567.71 -505.21,-119.79 -781.25,-692.71 -828.13,-833.33 -46.87,-140.62 -36.46,-348.96 -36.46,-348.96 0,0 -197.92,526.04 223.96,973.96 421.88,447.92 699.22,432.29 701.83,447.92 2.6,15.63 -544.11,169.63 -998.7,-192.71 -527.73,-420.63 -546.87,-1187.5 -244.79,-1679.69 302.09,-492.19 683.83,-647.25 678.05,-624.3 -5.79,22.95 -188.46,848.26 431.33,1408.15 619.79,559.89 1007.15,173.26 838.54,-531.25 -130.7,-546.1 -796.22,-1403.65 -1069.66,-1798.18 -273.44,-394.54 -341.79,-679.7 -354.8,-686.21 -5.03,-2.51 -102.6,254.33 -279.73,529.25 -356.41,553.19 -615.43,1057.69 -755.96,1364.3 -229.16,500 -334.07,1136.4 -18.97,1612.96 315.11,476.56 845.06,688.15 845.06,688.15 0,0 -632.24,-37.68 -1108.07,-577.48 -504.13,-571.9 -348.96,-1338.55 -255.21,-1567.72 93.75,-229.17 182.27,-468.75 401.02,-833.33 218.75,-364.58 507.81,-776.04 768.23,-1229.17 260.42,-453.13 429.72,-947.92 429.72,-947.92z"/>
  <path class="fil1" d="M4184.09 2466.65c0,0 166.67,346.35 377.61,635.42 210.94,289.06 459.65,644.53 553.39,785.16 93.75,140.63 287.76,506.52 324.22,726.57 36.46,220.06 44.27,509.12 -37.76,562.51 -82.03,53.39 -359.38,33.85 -656.25,-315.11 -296.87,-348.96 -375.01,-738.28 -354.17,-1009.11 20.83,-270.83 102.87,-420.58 102.87,-420.58 0,0 -244.79,97.65 -533.85,329.43 -289.06,231.77 -476.55,552.09 -565.09,914.07 -88.54,361.98 31.24,713.54 96.35,872.4 65.11,158.85 127.61,210.94 127.61,210.94 0,0 -226.56,-156.25 -367.19,-419.27 -140.63,-263.02 -135.41,-617.19 -83.33,-817.71 52.08,-200.52 182.3,-653.65 492.19,-1182.3 309.89,-528.65 523.42,-872.4 523.42,-872.4z"/>
  <path class="fil2" d="M4164.94 1854.96c-0.24,-1.05 -0.36,-1.59 -0.36,-1.59 0,0 0.4,0.07 0.36,1.59zm-1283.86 2795.75c3.11,-59.06 30.98,-466.13 223.61,-875.46 208.33,-442.71 726.56,-1231.77 901.04,-1575.52 146.53,-288.69 158.98,-336.77 159.21,-344.76 5.72,25.17 80.93,344.72 280.89,654.66 208.33,322.92 546.87,813.8 576.82,842.45 29.95,28.65 404.93,582.02 527.33,904.94 78.53,207.18 106.39,428.1 116.28,559.87 74.67,58.73 145.78,121.76 213.08,188.63 21.87,-141.69 31.98,-354.67 -35.11,-590.95 -119.79,-421.87 -257.81,-726.57 -515.62,-1085.94 -257.81,-359.38 -507.81,-679.69 -755.2,-1130.21 -247.39,-450.52 -341.15,-822.92 -369.79,-986.98 -5.83,-33.38 -10.58,-65.58 -14.45,-95.69 -49.89,136.76 -201.01,530.96 -411.87,897.85 -260.42,453.13 -549.48,864.59 -768.23,1229.17 -218.75,364.58 -307.27,604.16 -401.02,833.33 -40,97.77 -91.17,293.38 -97.56,529.96l41.14 285.32c102.69,-88.99 212.87,-169.54 329.45,-240.66z"/>
  <path class="fil3" d="M4251.72 4295.96c-60.86,-285.56 -30.15,-532.24 -14.19,-624.09 -132.15,72.88 -374.52,251.69 -580.03,586.52 -15.3,24.93 -29.78,50.56 -43.4,76.81 145.68,-27.03 295.89,-41.16 449.41,-41.16 15.13,0 30.22,0.14 45.28,0.41 15.06,-0.27 30.15,-0.41 45.27,-0.41 32.71,0 65.27,0.64 97.67,1.91z"/>
  <path class="fil4" d="M3860.2 3714.85c119.67,-95.95 248.46,-183.13 382.97,-256.97 52.39,-28.76 110.25,-59.02 165.94,-81.23l111.52 -44.49 -29.81 100.65c2.1,-0.87 3.18,-1.3 3.18,-1.3 0,0 -2.57,4.69 -6.91,13.91l-4.28 14.45c-6.12,11.26 -11.91,23.93 -17.3,37.08 -25.78,68.39 -61.6,188.97 -74.38,355.15 -10.09,131.2 3.04,290.22 53.02,458.98 329.46,38.9 638.87,143.22 914.91,299.62 -16.44,-94.63 -56.98,-207.45 -85.86,-270.94 -263.09,-578.62 -770.55,-1218.58 -1031.05,-1636.73 -21.56,-38.88 -74.52,-136.17 -95.3,-175.93 -6.55,10.66 -13.92,22.68 -22.07,36 -153.87,251.8 -329.92,556.41 -476.15,805.85 -138.13,235.65 -256.24,483.13 -351.2,739.18 -60.09,164.15 -98.56,298.34 -122.78,389.74 56.16,-24.54 113.41,-47.04 171.67,-67.4 106.21,-278.54 276.77,-525.48 513.89,-715.6z"/>
  <path class="fil5" d="M6457.1 4381.89c0,1237.72 -874.61,2267.13 -2204.07,2267.13 -1329.46,0 -2209.28,-1047.64 -2209.28,-2285.36"/>
  <path class="fil6" d="M2244.69 5358.18l220.54 -114.76 22.49 43.22 -100.57 167.67 147.8 -76.91 21.48 41.28 -220.54 114.76 -23.21 -44.61 98.46 -164.81 -144.97 75.44 -21.48 -41.28zm126.73 240.41l208.57 -135.31 27.4 42.24 -92.39 59.94 147.6 25.17 36.72 56.61 -132.28 -26 -73.64 165.39 -35.34 -54.47 60.69 -120.91 -56.87 -11.32 -63.07 40.91 -27.4 -42.24zm335.96 61.22l33.3 37.77 -101.06 89.09c-16.06,14.16 -26.02,23.78 -29.94,28.87 -6.22,8.34 -9.06,17.56 -8.38,27.6 0.67,10.13 5.61,20.36 14.79,30.78 9.3,10.55 18.51,16.63 27.64,18.14 9.13,1.52 17.3,0.02 24.64,-4.52 7.33,-4.54 18.38,-13.28 33.14,-26.29l103.23 -91 33.3 37.77 -98.06 86.45c-22.4,19.75 -39.13,32.71 -50.17,38.83 -11.05,6.11 -22.15,9.27 -33.35,9.42 -11.17,0.2 -22.63,-2.65 -34.44,-8.44 -11.85,-5.83 -24.25,-16.04 -37.22,-30.75 -15.65,-17.76 -25.48,-33.01 -29.43,-45.81 -3.95,-12.8 -5,-24.75 -3.11,-35.91 1.89,-11.16 5.69,-20.68 11.45,-28.76 8.5,-11.89 23.22,-27.03 44.1,-45.44l99.58 -87.79zm-6.07 365.75l169.07 -182.27 55.28 51.28 -82.64 154.61 147.6 -94.36 55.41 51.4 -169.07 182.27 -34.11 -31.64 132.98 -143.61 -169.04 110.15 -35.47 -32.9 97.33 -176.66 -133.23 143.37 -34.11 -31.64zm234.06 203.48l139.15 -206.02 66.71 45.05c25.28,17.07 41.04,29.19 47.32,36.43 9.69,11.09 15.04,24.47 16,40.21 0.96,15.74 -4.09,31.8 -15.17,48.2 -8.55,12.66 -18.01,21.7 -28.39,27.26 -10.44,5.52 -20.8,8.36 -31.19,8.54 -10.36,0.13 -19.75,-1.46 -28.11,-4.81 -11.25,-4.74 -26.27,-13.41 -45.07,-26.11l-27.05 -18.27 -52.47 77.69 -41.72 -28.18zm157.35 -143.02l-39.64 58.7 22.68 15.32c16.35,11.05 27.98,17.3 34.96,18.87 6.98,1.56 13.56,1.12 19.81,-1.43 6.23,-2.5 11.41,-6.75 15.56,-12.89 5.08,-7.53 7.06,-15.21 6,-23.04 -1.11,-7.87 -4.55,-14.67 -10.47,-20.48 -4.32,-4.24 -13.93,-11.43 -28.89,-21.54l-20 -13.51zm52.56 278.91l116.98 -219.37 44.43 23.69 -116.99 219.37 -44.42 -23.69zm224.77 110.41l77.61 -191.46 -68.22 -27.65 15.78 -38.94 182.77 74.09 -15.78 38.94 -67.89 -27.52 -77.61 191.46 -46.67 -18.91zm164.86 62.91l68.8 -238.9 101.6 29.26c25.52,7.35 43.48,14.87 53.81,22.48 10.39,7.63 17.43,17.91 21.22,30.86 3.78,13.02 3.69,26.54 -0.39,40.66 -5.17,17.96 -14.66,31.25 -28.54,39.9 -13.87,8.65 -31.67,11.48 -53.46,8.52 8.65,9.06 15.29,18.19 19.93,27.42 4.69,9.24 10.07,24.82 16.18,46.69l15.72 55 -57.67 -16.61 -19.57 -62.13c-7.06,-22.08 -12.21,-36.21 -15.43,-42.38 -3.19,-6.09 -7.06,-10.83 -11.67,-14.08 -4.66,-3.27 -12.52,-6.5 -23.65,-9.7l-9.79 -2.82 -28.73 99.76 -48.38 -13.93zm88.07 -123.87l35.7 10.28c23.13,6.67 37.83,9.81 44.17,9.53 6.29,-0.3 11.83,-2.37 16.43,-6.23 4.66,-3.84 8,-9.38 10.07,-16.56 2.32,-8.06 2.01,-15.14 -0.83,-21.38 -2.85,-6.18 -8.02,-11.04 -15.44,-14.56 -3.79,-1.69 -15.44,-5.35 -34.96,-10.97l-37.65 -10.84 -17.49 60.72zm395.83 223.78l-53.8 -6.78 -14.22 -58.84 -98.93 -12.47 -27.58 53.57 -52.82 -6.66 126.86 -234.59 52.76 6.65 67.72 259.11zm-78.96 -109.34l-22.77 -95.61 -44.81 87.09 67.58 8.52zm131.9 -132.97l91.52 2.26c20.65,0.51 36.35,2.46 47.09,5.91 14.42,4.64 26.72,12.59 36.81,23.83 10.15,11.19 17.68,24.81 22.73,40.85 4.99,15.98 7.22,35.67 6.65,58.92 -0.5,20.48 -3.48,38 -8.94,52.69 -6.64,17.96 -15.85,32.37 -27.64,43.26 -8.89,8.29 -20.79,14.59 -35.67,18.97 -11.13,3.26 -25.93,4.63 -44.44,4.17l-94.24 -2.33 6.13 -248.54zm49.3 43.24l-4.06 164.54 37.32 0.92c13.94,0.34 24.03,-0.22 30.26,-1.63 8.21,-1.83 15,-5.13 20.44,-9.86 5.5,-4.72 10.04,-12.6 13.67,-23.63 3.69,-11.02 5.74,-26.2 6.21,-45.4 0.47,-19.21 -0.84,-33.94 -4,-44.33 -3.1,-10.38 -7.65,-18.48 -13.58,-24.42 -5.94,-5.87 -13.53,-10 -22.85,-12.26 -6.91,-1.73 -20.59,-2.88 -40.96,-3.38l-22.45 -0.56zm213.77 207.93l-6.03 -248.54 50.33 -1.22 6.03 248.54 -50.33 1.22zm118.46 -4.47l-30.6 -246.72 48.36 -6 122.05 152.75 -20.51 -165.34 46.17 -5.73 30.6 246.72 -49.91 6.19 -120.1 -149.78 20.11 162.18 -46.17 5.73zm360.55 -153.2l-9.37 -40.95 105.26 -24.1 22.14 96.69c-7.92,12.32 -20.76,24.46 -38.47,36.53 -17.68,12 -36.5,20.29 -56.46,24.86 -25.33,5.8 -48.6,5.55 -69.89,-0.8 -21.22,-6.36 -38.88,-18.41 -52.9,-36.04 -14.01,-17.63 -23.69,-38.15 -29.03,-61.45 -5.79,-25.27 -5.63,-48.93 0.42,-71.04 6.11,-22.06 18.1,-40.72 36.06,-55.87 13.72,-11.63 32.1,-20.06 55.23,-25.35 30.07,-6.88 55.04,-5.95 74.85,2.81 19.77,8.83 34.65,23.77 44.62,45l-46.65 20.3c-6.11,-11.13 -14.7,-19.07 -25.7,-23.85 -10.94,-4.74 -23.46,-5.5 -37.56,-2.26 -21.32,4.88 -36.76,15.54 -46.22,32.01 -9.46,16.47 -11.17,38.06 -5.06,64.74 6.6,28.83 17.93,48.97 33.96,60.44 16.1,11.45 34.45,14.85 55.15,10.11 10.21,-2.34 20.01,-6.72 29.36,-13.07 9.41,-6.37 17.08,-13.29 23.15,-20.74l-7.04 -30.74 -55.85 12.79zm259.5 13.46l-92.35 -230.82 74.74 -29.9c28.32,-11.33 47.2,-17.57 56.72,-18.7 14.61,-1.8 28.69,1.3 42.26,9.33 13.56,8.04 24.02,21.24 31.37,39.62 5.68,14.19 7.85,27.09 6.62,38.8 -1.29,11.74 -4.76,21.91 -10.44,30.61 -5.71,8.65 -12.31,15.52 -19.76,20.56 -10.24,6.65 -25.85,14.21 -46.91,22.64l-30.31 12.13 34.82 87.04 -46.74 18.7zm-30 -210.51l26.31 65.76 25.42 -10.17c18.32,-7.33 30.02,-13.44 35.24,-18.33 5.21,-4.89 8.54,-10.59 9.95,-17.2 1.43,-6.56 0.82,-13.23 -1.94,-20.11 -3.37,-8.43 -8.62,-14.38 -15.7,-17.9 -7.14,-3.5 -14.69,-4.47 -22.82,-2.83 -5.94,1.19 -17.28,5.11 -34.04,11.81l-22.41 8.96zm308.83 80.88l-105.72 -177.5 -63.24 37.67 -21.5 -36.1 169.44 -100.92 21.5 36.1 -62.94 37.48 105.71 177.5 -43.26 25.76zm203.22 -130.62l-62.56 -83.87 -159.15 -60.9 47.18 -35.19 105.98 43.74 -12.98 -113.12 46.29 -34.54 13.24 170.18 62.35 83.59 -40.35 30.11zm253.55 -115.53l-24.02 22.09c-30.49,-7.42 -58.58,-18.38 -84.39,-32.94 -25.72,-14.55 -47.5,-31.48 -65.32,-50.86 -22.1,-24.02 -38.88,-50.57 -50.41,-79.6 -9.92,-25.24 -16.63,-50.74 -20.1,-76.57l24.02 -22.09c11.69,35.71 23.51,64.46 35.43,86.06 11.95,21.63 27.02,42.37 45.23,62.18 12.54,13.63 26.66,26.43 42.38,38.39 15.72,11.88 31.71,22.26 48.06,31.05 10.73,5.78 27.09,13.22 49.11,22.29zm-7.44 -94.39l-175.87 -172.76 35.28 -35.92 145.9 143.32 87.35 -88.93 29.97 29.44 -122.63 124.84zm174 -194.55l-167.32 -121.18 -43.18 59.61 -34.03 -24.64 115.68 -159.73 34.03 24.65 -42.97 59.33 167.32 121.18 -29.53 40.78zm-110.43 -268.15l46.22 -79.03c10.43,-17.83 19.73,-30.63 27.94,-38.36 11.03,-10.38 23.93,-17.31 38.66,-20.7 14.7,-3.47 30.26,-3.48 46.75,-0.14 16.4,3.36 34.71,10.92 54.79,22.67 17.69,10.34 31.59,21.42 41.8,33.3 12.51,14.49 20.68,29.52 24.5,45.11 2.96,11.79 2.72,25.26 -0.63,40.39 -2.53,11.32 -8.48,24.94 -17.83,40.92l-47.59 81.37 -214.59 -125.52zm61.69 -22.24l142.06 83.1 18.85 -32.22c7.04,-12.04 11.43,-21.14 13.2,-27.28 2.37,-8.07 2.76,-15.61 1.26,-22.66 -1.48,-7.1 -6.18,-14.88 -14.08,-23.39 -7.87,-8.56 -20.16,-17.69 -36.74,-27.39 -16.59,-9.7 -30.12,-15.67 -40.74,-17.93 -10.58,-2.3 -19.87,-2.24 -27.94,0.08 -8.02,2.35 -15.3,7.01 -21.78,14.08 -4.85,5.2 -12.48,16.63 -22.76,34.22l-11.34 19.39zm359.13 -73.93l-9.19 19.85c-35,-53.45 -77.16,-91.59 -126.47,-114.43 -19.27,-8.93 -39.41,-15.57 -60.41,-19.94 -16.99,-3.66 -34.01,-5.61 -51.08,-5.93 -11.04,-0.27 -30.26,0.91 -57.58,3.44l9.19 -19.85c34.63,-7.31 67.06,-9.57 97.28,-6.8 25.97,2.46 51.16,9.34 75.58,20.65 27.67,12.81 52,30.52 72.92,53.09 20.95,22.52 37.52,45.82 49.77,69.92z"/>
 </g>
</svg>
